<?xml version="1.0"?>
<svg xmlns="http://www.w3.org/2000/svg" xmlns:xlink="http://www.w3.org/1999/xlink" xmlns:svgjs="http://svgjs.com/svgjs" version="1.1" width="512" height="512" x="0" y="0" viewBox="0 0 64 64" style="enable-background:new 0 0 512 512" xml:space="preserve" class=""><g><g xmlns="http://www.w3.org/2000/svg"><path d="m31 20c0-3.079-.926-6.038-2.679-8.557l-1.642 1.143c1.519 2.182 2.321 4.746 2.321 7.414 0 7.168-5.832 13-13 13s-13-5.832-13-13 5.832-13 13-13c2.315 0 4.588.616 6.573 1.781l1.013-1.725c-2.292-1.345-4.915-2.056-7.586-2.056-8.271 0-15 6.729-15 15 0 6.518 4.187 12.063 10.006 14.127l-4.368 2.913c-2.278 1.518-3.638 4.059-3.638 6.796 0 .88.141 1.749.419 2.583l3.581 10.743v.602l-2.618 5.236h19.236l-2.618-5.236v-5.764-1h1c1.654 0 3-1.346 3-3 0-.771-.301-1.468-.78-2 .48-.532.78-1.229.78-2s-.301-1.468-.78-2c.48-.532.78-1.229.78-2 0-.352-.072-.686-.184-1h1.184c1.654 0 3-1.346 3-3s-1.346-3-3-3h-2.549c4.503-2.591 7.549-7.442 7.549-13zm-12 14.698v2.302h-1c-.367 0-.716.076-1.041.197.012-.116.041-.23.041-.348v-.546c0-.477-.106-.929-.289-1.339.778-.037 1.546-.115 2.289-.266zm-3.22 11.302c-.48.532-.78 1.229-.78 2 0 1.654 1.346 3 3 3h1v1c0 .551-.449 1-1 1h-4c-.551 0-1-.449-1-1v-9c0-.939.449-1.837 1.2-2.4l.8-.6c0 .771.301 1.468.78 2-.48.532-.78 1.229-.78 2s.301 1.468.78 2zm-10.464-.213c-.21-.629-.316-1.286-.316-1.951 0-2.067 1.027-3.986 2.747-5.133l5.227-3.484c.215-.143.465-.219.723-.219.719 0 1.303.584 1.303 1.303v.546c0 .408-.195.797-.521 1.042l-1.479 1.109c-1.252.939-2 2.435-2 4v9c0 1.654 1.346 3 3 3h4c.352 0 .686-.072 1-.184v2.184h-10v-.162zm2.302 15.213 1-2h10.764l1 2zm14.382-12h-4c-.551 0-1-.449-1-1s.449-1 1-1h4c.551 0 1 .449 1 1s-.449 1-1 1zm0-4h-4c-.551 0-1-.449-1-1s.449-1 1-1h4c.551 0 1 .449 1 1s-.449 1-1 1zm0-4h-4c-.551 0-1-.449-1-1s.449-1 1-1h2 2c.551 0 1 .449 1 1s-.449 1-1 1zm4-6c.551 0 1 .449 1 1s-.449 1-1 1h-4-1v-2z" fill="#00aeef" data-original="#000000" style="" class=""/><path d="m58 1h-20c-2.757 0-5 2.243-5 5v32c0 2.757 2.243 5 5 5h1.882l.59 1.18c.345.691.528 1.465.528 2.237v4.479c0 1.583.545 3.136 1.534 4.373l2.128 2.66c-1.071 1.094-1.662 2.537-1.662 4.071v1h18v-1c0-1.534-.591-2.977-1.662-4.072l2.128-2.66c.989-1.236 1.534-2.789 1.534-4.372v-8.896-1.438-34.562c0-2.757-2.243-5-5-5zm-19 36v-2h2l.001 2zm6.131 24c.172-.64.509-1.226.99-1.707l.293-.293h11.172l.293.293c.481.481.818 1.067.99 1.707zm15.869-19v8.896c0 1.131-.389 2.24-1.096 3.124l-2.384 2.98h-11.04l-2.385-2.981c-.706-.884-1.095-1.993-1.095-3.123v-4.479c0-1.081-.255-2.164-.739-3.131l-1.196-2.391c-.043-.086-.065-.182-.065-.277 0-.341.277-.618.618-.618 1.865 0 3.382 1.517 3.382 3.382v1.618 3h2v-3-1.618-15.382c0-.551.449-1 1-1s1 .449 1 1v6.719 13.281h2v-10.719l2 .5v10.219h2v-9.719l2 .5v9.219h2v-8.719l1.242.311c.446.111.758.51.758.97zm-6-5.781v-1.219h2v1.719zm6 1.525c-.09-.032-.178-.069-.272-.093l-1.728-.432v-2.219c0-1.103-.897-2-2-2h-2c-1.103 0-2 .897-2 2v.719l-2-.5v-7.219c0-1.654-1.346-3-3-3s-3 1.346-3 3v11.23c-.669-.546-1.457-.95-2.336-1.124.212-.317.336-.697.336-1.106v-2c0-1.103-.897-2-2-2h-2c-1.103 0-2 .897-2 2v2c0 1.103.897 2 2 2h.576c-.355.447-.576 1.004-.576 1.618 0 .128.026.255.045.382h-1.045c-1.654 0-3-1.346-3-3v-32c0-1.654 1.346-3 3-3h20c1.654 0 3 1.346 3 3z" fill="#00aeef" data-original="#000000" style="" class=""/><path d="m57 5h-18c-1.103 0-2 .897-2 2v6c0 1.103.897 2 2 2h18c1.103 0 2-.897 2-2v-6c0-1.103-.897-2-2-2zm-18 8v-6h18l.001 6z" fill="#00aeef" data-original="#000000" style="" class=""/><path d="m41 17h-2c-1.103 0-2 .897-2 2v2c0 1.103.897 2 2 2h2c1.103 0 2-.897 2-2v-2c0-1.103-.897-2-2-2zm-2 4v-2h2l.001 2z" fill="#00aeef" data-original="#000000" style="" class=""/><path d="m49 17h-2c-1.103 0-2 .897-2 2v2c0 1.103.897 2 2 2h2c1.103 0 2-.897 2-2v-2c0-1.103-.897-2-2-2zm-2 4v-2h2l.001 2z" fill="#00aeef" data-original="#000000" style="" class=""/><path d="m57 17h-2c-1.103 0-2 .897-2 2v2c0 1.103.897 2 2 2h2c1.103 0 2-.897 2-2v-2c0-1.103-.897-2-2-2zm-2 4v-2h2l.001 2z" fill="#00aeef" data-original="#000000" style="" class=""/><path d="m41 25h-2c-1.103 0-2 .897-2 2v2c0 1.103.897 2 2 2h2c1.103 0 2-.897 2-2v-2c0-1.103-.897-2-2-2zm-2 4v-2h2l.001 2z" fill="#00aeef" data-original="#000000" style="" class=""/><path d="m57 25h-2c-1.103 0-2 .897-2 2v2c0 1.103.897 2 2 2h2c1.103 0 2-.897 2-2v-2c0-1.103-.897-2-2-2zm-2 4v-2h2l.001 2z" fill="#00aeef" data-original="#000000" style="" class=""/><path d="m25 6h2.716l-9.745 10.557-3.971-3.971-6.978 6.978c.23-4.759 4.163-8.564 8.978-8.564 1.271 0 2.5.26 3.652.771l.813-1.827c-1.41-.626-2.912-.944-4.465-.944-6.065 0-11 4.935-11 11s4.935 11 11 11 11-4.935 11-11c0-1.913-.499-3.796-1.442-5.447l-1.736.992c.771 1.349 1.178 2.89 1.178 4.455 0 2.136-.752 4.099-2 5.644v-11.587l6-6.499v2.442h2v-6h-6zm-16 19.644c-.816-1.01-1.411-2.2-1.731-3.499l1.731-1.731zm4 2.831c-.711-.252-1.384-.583-2-.997v-9.064l2-2zm4 .466c-.329.037-.662.059-1 .059s-.671-.022-1-.059v-12.527l2 2zm4-1.463c-.616.413-1.289.744-2 .997v-10.085l2-2.167z" fill="#00aeef" data-original="#000000" style="" class=""/></g></g></svg>
