<?xml version="1.0"?>
<svg xmlns="http://www.w3.org/2000/svg" xmlns:xlink="http://www.w3.org/1999/xlink" xmlns:svgjs="http://svgjs.com/svgjs" version="1.1" width="512" height="512" x="0" y="0" viewBox="0 0 64 64" style="enable-background:new 0 0 512 512" xml:space="preserve"><g><path xmlns="http://www.w3.org/2000/svg" d="m59 35v-3h-5v-24c0-1.7-1.3-3-3-3h-19v-3h-16v3h-3c-1.7 0-3 1.3-3 3v24h-5v3c0 1.4.9 2.5 2.2 2.9l1.6 4.9-3.1 3.5 5 7.2 4.5-1.9 4 3-.4 4.9 8.1 2.7 2.5-4.2h5l2.5 4.2 8.1-2.7-.4-4.9 4-3 4.5 1.9 5-7.2-3.1-3.5 1.6-4.9c1.5-.4 2.4-1.5 2.4-2.9zm-22-7v-4h3v4zm3-6h-3v-3h3zm-5 0h-3v-3h3zm0 2v4h-3v-4zm5-7h-3v-4h3zm-5 0h-3v-4h3zm-5-13v24h-2v-7h-8v7h-2v-24zm-4 24h-4v-5h4zm-14-20c0-.6.4-1 1-1h3v21h-2v2h36v-2h-2v-3.2c1.2-.4 2-1.5 2-2.8v-6c0-1.7-1.3-3-3-3s-3 1.3-3 3v6c0 1.3.8 2.4 2 2.8v3.2h-4v-17h-10v-4h19c.6 0 1 .4 1 1v24h-40zm34 14v-6c0-.6.4-1 1-1s1 .4 1 1v6c0 .6-.4 1-1 1s-1-.4-1-1zm-39 12h50v1c0 .6-.4 1-1 1h-48c-.6 0-1-.4-1-1zm39.7 4c-1.7 8.1-9.6 13.4-17.7 11.7-5.9-1.2-10.5-5.8-11.7-11.7zm9 8.4-3.2 4.5-4-1.7-5.9 4.4.4 4.5-5.1 1.7-2.3-3.8h-7.3l-2.3 3.8-5-1.7.4-4.5-5.9-4.4-4 1.7-3.2-4.5 2.9-3.2-1.8-5.2h5.9c1.7 9.2 10.5 15.4 19.7 13.7 7-1.2 12.5-6.7 13.7-13.7h5.9l-1.7 5.2z" fill="#00aeef" data-original="#000000" style=""/><path xmlns="http://www.w3.org/2000/svg" d="m28 6h-8v13h8zm-2 2v4h-4v-4zm-4 9v-3h4v3z" fill="#00aeef" data-original="#000000" style=""/><path xmlns="http://www.w3.org/2000/svg" d="m32 48v-2c-3.8 0-7.2-2.1-8.9-5.5l-1.8.9c2.1 4.1 6.2 6.6 10.7 6.6z" fill="#00aeef" data-original="#000000" style=""/><path xmlns="http://www.w3.org/2000/svg" d="m38.5 46.1-1.1-1.7c-.8.5-1.8 1-2.7 1.2l.5 1.9c1.2-.3 2.3-.8 3.3-1.4z" fill="#00aeef" data-original="#000000" style=""/><path xmlns="http://www.w3.org/2000/svg" d="m42.7 41.5-1.8-.9c-.4.8-1 1.6-1.6 2.3l1.5 1.4c.7-.9 1.4-1.8 1.9-2.8z" fill="#00aeef" data-original="#000000" style=""/></g></svg>
