<svg id="Capa_1" data-name="Capa 1" xmlns="http://www.w3.org/2000/svg" viewBox="0 0 864.48 456.7"><path d="M121.79,573.07q-1.55-6.87-5.74-9.79t-11-2.91a16,16,0,0,0-13.94,7.17,23.32,23.32,0,0,0-3.32,7.59,37.71,37.71,0,0,0-1.06,9.08,42,42,0,0,0,.92,8.83,23.69,23.69,0,0,0,3,7.74,16.17,16.17,0,0,0,5.74,5.49,17.77,17.77,0,0,0,9,2.1,16.58,16.58,0,0,0,6.18-1.12,15.45,15.45,0,0,0,4.9-3.11,18.12,18.12,0,0,0,3.53-4.67,24,24,0,0,0,2.17-5.91h5.22a33.32,33.32,0,0,1-2.57,7.37A20.89,20.89,0,0,1,120.5,607a20.15,20.15,0,0,1-6.7,4.15,25.45,25.45,0,0,1-9.24,1.53,22.17,22.17,0,0,1-10.44-2.28A19.84,19.84,0,0,1,87,604.25a26.32,26.32,0,0,1-4-9,45.88,45.88,0,0,1-1.25-10.87,40,40,0,0,1,1.88-13.09,23.38,23.38,0,0,1,5.19-8.78,19.6,19.6,0,0,1,7.8-4.94A30.11,30.11,0,0,1,106.4,556a25.14,25.14,0,0,1,7.55,1.09,18.27,18.27,0,0,1,6.18,3.25,17.6,17.6,0,0,1,4.42,5.34,23.08,23.08,0,0,1,2.39,7.36Z" transform="translate(-79.31 -156)" style="fill:#3db391"/><path d="M179.41,584.44A37.29,37.29,0,0,1,181,573.38a26.51,26.51,0,0,1,4.67-9,22.11,22.11,0,0,1,7.66-6.09A23.46,23.46,0,0,1,203.84,556a25.29,25.29,0,0,1,10.85,2.2,22.1,22.1,0,0,1,7.81,6.06,26.32,26.32,0,0,1,4.7,9.05,37.75,37.75,0,0,1,1.59,11.1,36.81,36.81,0,0,1-1.59,11,26.64,26.64,0,0,1-4.67,9,22.14,22.14,0,0,1-7.73,6.1,26.87,26.87,0,0,1-21.48,0,22.05,22.05,0,0,1-7.73-6.1,26.23,26.23,0,0,1-4.64-9A37.8,37.8,0,0,1,179.41,584.44Zm24.72,23.93a18.64,18.64,0,0,0,8.87-2,17.72,17.72,0,0,0,6.11-5.27,22.63,22.63,0,0,0,3.53-7.62,35.46,35.46,0,0,0,1.14-9,34.29,34.29,0,0,0-1.36-10.06,21.91,21.91,0,0,0-3.94-7.58,16.85,16.85,0,0,0-6.25-4.79,20.12,20.12,0,0,0-8.25-1.64,18.12,18.12,0,0,0-8.79,2,17.91,17.91,0,0,0-6.11,5.34,23.07,23.07,0,0,0-3.53,7.67,36.73,36.73,0,0,0,0,18.16,22.68,22.68,0,0,0,3.53,7.63,17.4,17.4,0,0,0,6.11,5.23A19,19,0,0,0,204.13,608.37Z" transform="translate(-79.31 -156)" style="fill:#3db391"/><path d="M287.88,564.33h-.15v46.95h-5V557.45h5.66l30.62,47h.15v-47h5v53.83h-5.82Z" transform="translate(-79.31 -156)" style="fill:#3db391"/><path d="M382.22,595.21a16,16,0,0,0,1.58,6.09,12.07,12.07,0,0,0,3.31,4.08,13.08,13.08,0,0,0,4.68,2.27,21.46,21.46,0,0,0,5.66.72,18.52,18.52,0,0,0,6.11-.9,11.65,11.65,0,0,0,4.2-2.43,9.58,9.58,0,0,0,2.38-3.55,11.76,11.76,0,0,0,.78-4.27,8.53,8.53,0,0,0-1.4-5.08,10.79,10.79,0,0,0-3.64-3.17,21.84,21.84,0,0,0-5.15-2c-1.94-.5-3.93-1-6-1.46s-4-1-6-1.68a19,19,0,0,1-5.16-2.61A12.68,12.68,0,0,1,380,577a13.66,13.66,0,0,1-1.39-6.54,13.46,13.46,0,0,1,4.52-10,16.68,16.68,0,0,1,5.63-3.21,23.28,23.28,0,0,1,7.8-1.2,22,22,0,0,1,7.84,1.27,15.55,15.55,0,0,1,5.55,3.48,14.24,14.24,0,0,1,3.32,5.12,17.49,17.49,0,0,1,1.1,6.21h-4.79a12.24,12.24,0,0,0-1.06-5.31,9.9,9.9,0,0,0-2.91-3.67,12.4,12.4,0,0,0-4.19-2.09,17.6,17.6,0,0,0-4.86-.67,16.9,16.9,0,0,0-6.44,1.08,11.26,11.26,0,0,0-4.16,2.81,9.39,9.39,0,0,0-2.13,3.81,9.12,9.12,0,0,0-.22,4.18,7.29,7.29,0,0,0,2.06,4.19,12.86,12.86,0,0,0,4,2.58,30.39,30.39,0,0,0,5.19,1.65c1.89.42,3.81.87,5.78,1.34a57,57,0,0,1,5.7,1.69,17.07,17.07,0,0,1,4.89,2.61,12,12,0,0,1,3.43,4.22,14.59,14.59,0,0,1,1.29,6.47q0,7.47-5.08,11.59t-14.28,4.11a26,26,0,0,1-7.65-1.08,16.83,16.83,0,0,1-6.11-3.29,15.09,15.09,0,0,1-4-5.46,18.8,18.8,0,0,1-1.44-7.66Z" transform="translate(-79.31 -156)" style="fill:#3db391"/><path d="M469.35,557.45h5v32.08q0,10,3.68,14.43c2.46,2.94,6.4,4.41,11.85,4.41a20.15,20.15,0,0,0,7.25-1.16,11.13,11.13,0,0,0,4.82-3.52,14.7,14.7,0,0,0,2.65-5.87,37.29,37.29,0,0,0,.81-8.29V557.45h5V591q0,10.54-5.11,16.11t-15.42,5.57q-10.38,0-15.45-5.68t-5.08-16Z" transform="translate(-79.31 -156)" style="fill:#3db391"/><path d="M566.56,611.28V557.45h5v49.49H600v4.34Z" transform="translate(-79.31 -156)" style="fill:#3db391"/><path d="M646.85,557.45h38.56v4.34H668.63v49.49h-5V561.79H646.85Z" transform="translate(-79.31 -156)" style="fill:#3db391"/><path d="M738.46,611.28V557.45h5v53.83Z" transform="translate(-79.31 -156)" style="fill:#3db391"/><path d="M806.32,564.33h-.15v46.95h-5V557.45h5.66l30.62,47h.15v-47h5v53.83h-5.81Z" transform="translate(-79.31 -156)" style="fill:#3db391"/><path d="M921.12,587.81v-4.34h22.67v27.81h-4.27v-9.19a26,26,0,0,1-3.2,4.37,17.63,17.63,0,0,1-4.16,3.36,19.49,19.49,0,0,1-5.45,2.13,29.72,29.72,0,0,1-7,.75,23.82,23.82,0,0,1-9.27-1.79,19.82,19.82,0,0,1-7.36-5.35,25,25,0,0,1-4.82-8.93,41.26,41.26,0,0,1-1.73-12.56A39.8,39.8,0,0,1,898,573a24.81,24.81,0,0,1,4.53-8.9,21.45,21.45,0,0,1,7.65-5.94A25.2,25.2,0,0,1,921.05,556a28.3,28.3,0,0,1,7.84,1.05,20.35,20.35,0,0,1,6.55,3.18,19.1,19.1,0,0,1,4.89,5.3,22.66,22.66,0,0,1,2.87,7.51h-5.15a15.91,15.91,0,0,0-2.25-5.38,15.73,15.73,0,0,0-3.79-4,17,17,0,0,0-4.93-2.46,18.77,18.77,0,0,0-5.67-.86,19.86,19.86,0,0,0-9,1.87,16.52,16.52,0,0,0-6.19,5.27,23.17,23.17,0,0,0-3.56,8.14,44.2,44.2,0,0,0-1.15,10.43,28.13,28.13,0,0,0,1.29,8.53,21.65,21.65,0,0,0,3.76,7.1,17.61,17.61,0,0,0,14.16,6.66,20.78,20.78,0,0,0,4.42-.49,17,17,0,0,0,4.42-1.61,17.37,17.37,0,0,0,4-2.91,16.7,16.7,0,0,0,3.16-4.41,19.43,19.43,0,0,0,1.73-5.31,39.78,39.78,0,0,0,.55-5.83Z" transform="translate(-79.31 -156)" style="fill:#3db391"/><path d="M135.63,251.07q3.33-10.81,12.21-13.59T172,234.7q15.83,0,24.84,2.78t12.35,13.59L264.94,432c0,1.11-.65,1.66-1.95,1.66H226.65a3.44,3.44,0,0,1-3.61-2.49l-14.71-48a3.48,3.48,0,0,0-3.6-2.77H139.52c-1.85,0-3.06,1-3.61,3.05l-14.7,47.45a3.49,3.49,0,0,1-3.61,2.77H81.52c-1.48,0-2.21-.55-2.21-1.66Zm39.68,24.7a19.8,19.8,0,0,0-1.39-4,2.05,2.05,0,0,0-1.94-1q-1.38,0-3,5L149.51,339a2,2,0,0,1-.14.84,1.12,1.12,0,0,0-.14.55c0,1.3.74,1.94,2.22,1.94h41.34c1.48,0,2.23-.64,2.23-1.94a1.4,1.4,0,0,0-.14-.55,1.84,1.84,0,0,1-.14-.84Z" transform="translate(-79.31 -156)" style="fill:#0c4269"/><path d="M414.77,297.69v136H372.05V415.89q-7.79,11.66-17.49,16.1A49,49,0,0,1,334,436.43q-13.61,0-22.89-5.69a44.18,44.18,0,0,1-15-15.12A67.84,67.84,0,0,1,288,393.84a130.27,130.27,0,0,1-2.5-25.95v-70.2h44.4v71q0,16.93,4.72,24.84t15.53,7.9a23.13,23.13,0,0,0,12.07-3,25.67,25.67,0,0,0,8.19-7.49V297.69Z" transform="translate(-79.31 -156)" style="fill:#0c4269"/><path d="M574.6,297.69V326h-20l-.27-.28a46.77,46.77,0,0,1,3,16.1,42.66,42.66,0,0,1-3.74,17.75,41.06,41.06,0,0,1-11.1,14.57A54.21,54.21,0,0,1,524.24,384a81.42,81.42,0,0,1-25.39,3.6h-1.67a28.82,28.82,0,0,0-1.8,3.75,11.15,11.15,0,0,0-.69,4,6.2,6.2,0,0,0,2.91,5.69,15.61,15.61,0,0,0,7.35,2.08l23.86,1.39q20.55,1.38,32.89,10.68t12.35,27.61a37.6,37.6,0,0,1-6.8,22.34,53.72,53.72,0,0,1-18,15.81,95.24,95.24,0,0,1-25.39,9.44A131.18,131.18,0,0,1,495,493.59a151.6,151.6,0,0,1-22.61-1.66,71.58,71.58,0,0,1-19.56-5.7,37.56,37.56,0,0,1-13.87-10.68q-5.28-6.66-5.28-16.37a22.28,22.28,0,0,1,2.78-11.24,28.09,28.09,0,0,1,7.49-8.46,46.89,46.89,0,0,1,10.82-6.11,75.81,75.81,0,0,1,12.49-3.88Q455,423.39,455,410.9a20.83,20.83,0,0,1,2.08-9.44,29.94,29.94,0,0,1,5.13-7.35,36.34,36.34,0,0,1,6.8-5.55,49.07,49.07,0,0,1,7.08-3.74q-17.76-4.72-26.78-16.24a42.12,42.12,0,0,1-9-26.77,45,45,0,0,1,3.75-18.45,42,42,0,0,1,11.1-14.85,52.69,52.69,0,0,1,18.31-10,81.36,81.36,0,0,1,25.39-3.61,90.9,90.9,0,0,1,11.51.7,64.3,64.3,0,0,1,10.13,2.08ZM485.81,434.21a65,65,0,0,0-6.94,6.1,12.73,12.73,0,0,0-3.6,9.44q0,7.77,6.51,11.37T500,464.73A58.26,58.26,0,0,0,512,463.48a44.37,44.37,0,0,0,10.68-3.6,24.13,24.13,0,0,0,7.49-5.55A10.89,10.89,0,0,0,533,447c0-3.33-1.16-5.74-3.47-7.21s-6-2.41-11-2.78Zm13-73.81q9.7,0,14.7-5.14t5-14q0-8.87-5-14t-14.7-5.13q-9.72,0-14.71,5.13t-5,14q0,8.89,5,14T498.85,360.4Z" transform="translate(-79.31 -156)" style="fill:#0c4269"/><path d="M654.79,294.91q26.64,0,42.18,15.68T712.51,354a110.21,110.21,0,0,1-2.5,22.47H631.2q.56,12.5,8.47,20.12T664,404.24a129.41,129.41,0,0,0,20.95-1.8,76.8,76.8,0,0,0,19-5.42l5.55,28.59a97.85,97.85,0,0,1-23.72,8,132.37,132.37,0,0,1-27.33,2.78q-17.76,0-31.36-5.13A63.39,63.39,0,0,1,604.29,417a60.16,60.16,0,0,1-13.88-21.93,81.17,81.17,0,0,1-4.71-28.3,87,87,0,0,1,4.85-30,62.89,62.89,0,0,1,13.88-22.61,60.81,60.81,0,0,1,21.78-14.29A77.88,77.88,0,0,1,654.79,294.91Zm-1.39,28.31q-10.54,0-16.23,6.8t-5.69,18.73h39.4a19.44,19.44,0,0,0,.56-4.72q0-8.88-4.72-14.84T653.4,323.22Z" transform="translate(-79.31 -156)" style="fill:#0c4269"/><path d="M723.32,297.69h20.81V262.17h44.4v35.52h39.13v33.85H788.53v53.07q0,8,3.47,12.57c2.31,3.05,6.52,4.56,12.62,4.56a74.23,74.23,0,0,0,10.13-.69A65.34,65.34,0,0,0,824.6,399l3.06,31a65.8,65.8,0,0,1-16.38,4.76,113.71,113.71,0,0,1-19.42,1.68q-13.05,0-22.06-4a40.13,40.13,0,0,1-14.71-10.83,43,43,0,0,1-8.32-16.09,72.33,72.33,0,0,1-2.64-19.84V331.54H723.32Z" transform="translate(-79.31 -156)" style="fill:#0c4269"/><path d="M835.42,297.69h20.81V262.17h44.4v35.52h39.13v33.85H900.63v53.07q0,8,3.47,12.57c2.31,3.05,6.52,4.56,12.62,4.56a74.23,74.23,0,0,0,10.13-.69A65.34,65.34,0,0,0,936.7,399l3.06,31a65.8,65.8,0,0,1-16.38,4.76A113.71,113.71,0,0,1,904,436.43q-13.05,0-22.06-4a40.13,40.13,0,0,1-14.71-10.83,43,43,0,0,1-8.32-16.09,72.33,72.33,0,0,1-2.64-19.84V331.54H835.42Z" transform="translate(-79.31 -156)" style="fill:#0c4269"/><path d="M869.49,172.79c-6.16-.75-12.73-1.52-19.64-2.35s-14.39-1-22.1-1.6l-49.88-3.32c-17.78-.74-36.65-.57-56.21-.91-19.59-.76-39.67,1.2-60.24,1.88-20.7.39-41,3.67-61.79,5.65-20.74,2.2-40.47,6.64-60.51,9.88l-28.47,7-14,3.45-13.16,4.15-25.58,8.22L434.79,214a221.69,221.69,0,0,0-21,9.4c-6.45,3.25-13.26,6.09-18.76,9.42-11.41,6.41-21.72,12.42-29.88,18.27-8.72,5.57-14.93,11.1-20.55,15.44-2.55,2.26-4.83,4.28-6.8,6.09h46.32a116.15,116.15,0,0,1,10.71-8.86c6.72-5.51,15.44-11.25,25.16-17.46,4.64-3.22,10.61-6,16.16-9.18a180.14,180.14,0,0,1,18.3-9.3l20.34-9.25,22.93-8.44,11.83-4.33,12.78-3.65,26-7.51C567,191,585.28,186,604.86,183.26c19.64-2.56,38.9-6.45,58.89-7.51,19.81-1.35,39.21-4,58.42-3.86,19.1-.33,37.67-1.16,55.27-1l49.62,1.56c7.69.29,15.11.35,22.1.81s13.55,1.13,19.74,1.64c12.42,1,23.24,1.94,32.17,2.67l.34-1C892.55,175.52,881.82,174.24,869.49,172.79Z" transform="translate(-79.31 -156)" style="fill:#0c4269"/><path d="M856.76,168.14l-31.91-3.79L805.2,162c-7-.71-14.39-1-22.09-1.59l-49.89-3.32c-17.79-.75-36.65-.58-56.2-.92-19.6-.76-39.68,1.2-60.24,1.88-20.71.39-41,3.67-61.8,5.65-20.74,2.2-40.47,6.64-60.51,9.89l-28.47,7L452,184l-13.17,4.15-25.58,8.22-23.09,9.2a219.2,219.2,0,0,0-21,9.39c-6.46,3.25-13.27,6.08-18.76,9.42-11.41,6.41-21.71,12.42-29.87,18.27-8.72,5.57-14.93,11.1-20.56,15.45-5.14,4.55-9.2,8.12-11.86,11l-3.27,3.51h45.76l2.89-3c4.54-4,9.4-9.07,16.72-14.34,6.71-5.51,15.43-11.25,25.16-17.45,4.64-3.23,10.61-6,16.15-9.19a180.18,180.18,0,0,1,18.3-9.3l20.34-9.25,22.93-8.44,11.84-4.33,12.78-3.65,26-7.5c18.56-3.68,36.87-8.63,56.44-11.39,19.66-2.56,38.9-6.45,58.9-7.51,19.82-1.35,39.2-4,58.42-3.86,19.11-.33,37.67-1.16,55.28-1L782.41,164c7.69.3,15.11.35,22.1.81s13.55,1.13,19.74,1.64l32.17,2.68,28.07,2.33Z" transform="translate(-79.31 -156)" style="fill:#00adee"/></svg>